<mxfile host="Electron" modified="2024-04-17T18:28:32.881Z" agent="Mozilla/5.0 (Windows NT 10.0; Win64; x64) AppleWebKit/537.36 (KHTML, like Gecko) draw.io/24.1.0 Chrome/120.0.6099.109 Electron/28.1.0 Safari/537.36" etag="O1SIAkBQovC0EkOoDuFV" version="24.1.0" type="device" pages="2">
  <diagram id="WWSOo_p2d-Q9HbbQ9xVQ" name="Dia_ent-rel">
    <mxGraphModel dx="2208" dy="872" grid="1" gridSize="10" guides="1" tooltips="1" connect="1" arrows="1" fold="1" page="1" pageScale="1" pageWidth="827" pageHeight="1169" math="0" shadow="0">
      <root>
        <mxCell id="0" />
        <mxCell id="1" parent="0" />
        <mxCell id="uJhE-ypuf-mmSnQVpAfS-1" value="Atiende" style="rhombus;whiteSpace=wrap;html=1;" vertex="1" parent="1">
          <mxGeometry x="195" y="270" width="110" height="80" as="geometry" />
        </mxCell>
        <mxCell id="uJhE-ypuf-mmSnQVpAfS-2" value="Vende" style="rhombus;whiteSpace=wrap;html=1;" vertex="1" parent="1">
          <mxGeometry x="353" y="380" width="110" height="80" as="geometry" />
        </mxCell>
        <mxCell id="uJhE-ypuf-mmSnQVpAfS-4" value="Compra" style="rhombus;whiteSpace=wrap;html=1;" vertex="1" parent="1">
          <mxGeometry x="359" y="157" width="110" height="80" as="geometry" />
        </mxCell>
        <mxCell id="uJhE-ypuf-mmSnQVpAfS-5" value="Celular" style="whiteSpace=wrap;html=1;aspect=fixed;" vertex="1" parent="1">
          <mxGeometry x="550" y="277" width="80" height="80" as="geometry" />
        </mxCell>
        <mxCell id="uJhE-ypuf-mmSnQVpAfS-7" value="Empleado" style="whiteSpace=wrap;html=1;aspect=fixed;" vertex="1" parent="1">
          <mxGeometry x="210" y="380" width="80" height="80" as="geometry" />
        </mxCell>
        <mxCell id="uJhE-ypuf-mmSnQVpAfS-8" value="Cliente" style="whiteSpace=wrap;html=1;aspect=fixed;" vertex="1" parent="1">
          <mxGeometry x="214" y="164" width="67" height="67" as="geometry" />
        </mxCell>
        <mxCell id="uJhE-ypuf-mmSnQVpAfS-10" value="Direccion" style="ellipse;whiteSpace=wrap;html=1;" vertex="1" parent="1">
          <mxGeometry x="60" y="197" width="90" height="40" as="geometry" />
        </mxCell>
        <mxCell id="uJhE-ypuf-mmSnQVpAfS-11" value="RFC" style="ellipse;whiteSpace=wrap;html=1;" vertex="1" parent="1">
          <mxGeometry x="50" y="157" width="90" height="40" as="geometry" />
        </mxCell>
        <mxCell id="uJhE-ypuf-mmSnQVpAfS-12" value="Correo" style="ellipse;whiteSpace=wrap;html=1;" vertex="1" parent="1">
          <mxGeometry x="60" y="110" width="90" height="40" as="geometry" />
        </mxCell>
        <mxCell id="uJhE-ypuf-mmSnQVpAfS-13" value="Nombre" style="ellipse;whiteSpace=wrap;html=1;" vertex="1" parent="1">
          <mxGeometry x="80" y="70" width="90" height="40" as="geometry" />
        </mxCell>
        <mxCell id="uJhE-ypuf-mmSnQVpAfS-14" value="Telefono" style="ellipse;whiteSpace=wrap;html=1;" vertex="1" parent="1">
          <mxGeometry x="90" y="237" width="90" height="40" as="geometry" />
        </mxCell>
        <mxCell id="uJhE-ypuf-mmSnQVpAfS-16" value="" style="endArrow=classic;html=1;rounded=0;exitX=0.25;exitY=0;exitDx=0;exitDy=0;entryX=0.773;entryY=1.02;entryDx=0;entryDy=0;entryPerimeter=0;" edge="1" parent="1" source="uJhE-ypuf-mmSnQVpAfS-8" target="uJhE-ypuf-mmSnQVpAfS-13">
          <mxGeometry width="50" height="50" relative="1" as="geometry">
            <mxPoint x="390" y="-40" as="sourcePoint" />
            <mxPoint x="440" y="-90" as="targetPoint" />
          </mxGeometry>
        </mxCell>
        <mxCell id="uJhE-ypuf-mmSnQVpAfS-17" value="" style="endArrow=classic;html=1;rounded=0;exitX=0;exitY=0;exitDx=0;exitDy=0;entryX=1;entryY=0.5;entryDx=0;entryDy=0;" edge="1" parent="1" source="uJhE-ypuf-mmSnQVpAfS-8" target="uJhE-ypuf-mmSnQVpAfS-12">
          <mxGeometry width="50" height="50" relative="1" as="geometry">
            <mxPoint x="179" y="91" as="sourcePoint" />
            <mxPoint x="159" y="22" as="targetPoint" />
          </mxGeometry>
        </mxCell>
        <mxCell id="uJhE-ypuf-mmSnQVpAfS-18" value="" style="endArrow=classic;html=1;rounded=0;entryX=1;entryY=0.5;entryDx=0;entryDy=0;exitX=0;exitY=0.25;exitDx=0;exitDy=0;" edge="1" parent="1" source="uJhE-ypuf-mmSnQVpAfS-8" target="uJhE-ypuf-mmSnQVpAfS-11">
          <mxGeometry width="50" height="50" relative="1" as="geometry">
            <mxPoint x="200" y="90" as="sourcePoint" />
            <mxPoint x="160" y="40" as="targetPoint" />
          </mxGeometry>
        </mxCell>
        <mxCell id="uJhE-ypuf-mmSnQVpAfS-19" value="" style="endArrow=classic;html=1;rounded=0;entryX=1;entryY=0.5;entryDx=0;entryDy=0;exitX=0;exitY=0.5;exitDx=0;exitDy=0;" edge="1" parent="1" source="uJhE-ypuf-mmSnQVpAfS-8" target="uJhE-ypuf-mmSnQVpAfS-10">
          <mxGeometry width="50" height="50" relative="1" as="geometry">
            <mxPoint x="220" y="110" as="sourcePoint" />
            <mxPoint x="140" y="90" as="targetPoint" />
          </mxGeometry>
        </mxCell>
        <mxCell id="uJhE-ypuf-mmSnQVpAfS-20" value="" style="endArrow=classic;html=1;rounded=0;entryX=1;entryY=0.5;entryDx=0;entryDy=0;exitX=0;exitY=0.75;exitDx=0;exitDy=0;" edge="1" parent="1" source="uJhE-ypuf-mmSnQVpAfS-8" target="uJhE-ypuf-mmSnQVpAfS-14">
          <mxGeometry width="50" height="50" relative="1" as="geometry">
            <mxPoint x="220" y="130" as="sourcePoint" />
            <mxPoint x="140" y="140" as="targetPoint" />
          </mxGeometry>
        </mxCell>
        <mxCell id="uJhE-ypuf-mmSnQVpAfS-24" value="RFC" style="ellipse;whiteSpace=wrap;html=1;" vertex="1" parent="1">
          <mxGeometry x="150" y="560" width="90" height="40" as="geometry" />
        </mxCell>
        <mxCell id="uJhE-ypuf-mmSnQVpAfS-25" value="Correo" style="ellipse;whiteSpace=wrap;html=1;" vertex="1" parent="1">
          <mxGeometry x="105" y="520" width="90" height="40" as="geometry" />
        </mxCell>
        <mxCell id="uJhE-ypuf-mmSnQVpAfS-26" value="Nombre" style="ellipse;whiteSpace=wrap;html=1;" vertex="1" parent="1">
          <mxGeometry x="40" y="490" width="90" height="40" as="geometry" />
        </mxCell>
        <mxCell id="uJhE-ypuf-mmSnQVpAfS-27" value="" style="endArrow=classic;html=1;rounded=0;exitX=0;exitY=1;exitDx=0;exitDy=0;entryX=0.707;entryY=0.005;entryDx=0;entryDy=0;entryPerimeter=0;" edge="1" parent="1" target="uJhE-ypuf-mmSnQVpAfS-26" source="uJhE-ypuf-mmSnQVpAfS-7">
          <mxGeometry width="50" height="50" relative="1" as="geometry">
            <mxPoint x="210" y="550" as="sourcePoint" />
            <mxPoint x="430" y="541" as="targetPoint" />
          </mxGeometry>
        </mxCell>
        <mxCell id="uJhE-ypuf-mmSnQVpAfS-28" value="" style="endArrow=classic;html=1;rounded=0;exitX=0.25;exitY=1;exitDx=0;exitDy=0;entryX=0.5;entryY=0;entryDx=0;entryDy=0;" edge="1" parent="1" target="uJhE-ypuf-mmSnQVpAfS-25" source="uJhE-ypuf-mmSnQVpAfS-7">
          <mxGeometry width="50" height="50" relative="1" as="geometry">
            <mxPoint x="200" y="711" as="sourcePoint" />
            <mxPoint x="149" y="653" as="targetPoint" />
          </mxGeometry>
        </mxCell>
        <mxCell id="uJhE-ypuf-mmSnQVpAfS-29" value="" style="endArrow=classic;html=1;rounded=0;entryX=0.5;entryY=0;entryDx=0;entryDy=0;exitX=0.5;exitY=1;exitDx=0;exitDy=0;" edge="1" parent="1" target="uJhE-ypuf-mmSnQVpAfS-24" source="uJhE-ypuf-mmSnQVpAfS-7">
          <mxGeometry width="50" height="50" relative="1" as="geometry">
            <mxPoint x="200" y="731" as="sourcePoint" />
            <mxPoint x="150" y="671" as="targetPoint" />
          </mxGeometry>
        </mxCell>
        <mxCell id="uJhE-ypuf-mmSnQVpAfS-30" value="ID_empleado" style="ellipse;whiteSpace=wrap;html=1;" vertex="1" parent="1">
          <mxGeometry x="215" y="520" width="90" height="40" as="geometry" />
        </mxCell>
        <mxCell id="uJhE-ypuf-mmSnQVpAfS-32" value="" style="endArrow=classic;html=1;rounded=0;entryX=0.5;entryY=0;entryDx=0;entryDy=0;exitX=0.75;exitY=1;exitDx=0;exitDy=0;" edge="1" parent="1" source="uJhE-ypuf-mmSnQVpAfS-7" target="uJhE-ypuf-mmSnQVpAfS-30">
          <mxGeometry width="50" height="50" relative="1" as="geometry">
            <mxPoint x="250" y="560" as="sourcePoint" />
            <mxPoint x="245" y="650" as="targetPoint" />
          </mxGeometry>
        </mxCell>
        <mxCell id="uJhE-ypuf-mmSnQVpAfS-33" value="Direccion" style="ellipse;whiteSpace=wrap;html=1;" vertex="1" parent="1">
          <mxGeometry x="280" y="480" width="90" height="40" as="geometry" />
        </mxCell>
        <mxCell id="uJhE-ypuf-mmSnQVpAfS-34" value="" style="endArrow=classic;html=1;rounded=0;entryX=0.5;entryY=0;entryDx=0;entryDy=0;exitX=0.89;exitY=1.03;exitDx=0;exitDy=0;exitPerimeter=0;" edge="1" parent="1" source="uJhE-ypuf-mmSnQVpAfS-7" target="uJhE-ypuf-mmSnQVpAfS-33">
          <mxGeometry width="50" height="50" relative="1" as="geometry">
            <mxPoint x="270" y="560" as="sourcePoint" />
            <mxPoint x="250" y="635" as="targetPoint" />
          </mxGeometry>
        </mxCell>
        <mxCell id="uJhE-ypuf-mmSnQVpAfS-36" value="" style="endArrow=none;html=1;rounded=0;entryX=0.5;entryY=1;entryDx=0;entryDy=0;exitX=0.5;exitY=0;exitDx=0;exitDy=0;" edge="1" parent="1" source="uJhE-ypuf-mmSnQVpAfS-1" target="uJhE-ypuf-mmSnQVpAfS-8">
          <mxGeometry width="50" height="50" relative="1" as="geometry">
            <mxPoint x="390" y="450" as="sourcePoint" />
            <mxPoint x="440" y="400" as="targetPoint" />
          </mxGeometry>
        </mxCell>
        <mxCell id="uJhE-ypuf-mmSnQVpAfS-37" value="" style="endArrow=none;html=1;rounded=0;entryX=0.5;entryY=1;entryDx=0;entryDy=0;exitX=0.5;exitY=0;exitDx=0;exitDy=0;" edge="1" parent="1" source="uJhE-ypuf-mmSnQVpAfS-7">
          <mxGeometry width="50" height="50" relative="1" as="geometry">
            <mxPoint x="241" y="470" as="sourcePoint" />
            <mxPoint x="251" y="350" as="targetPoint" />
          </mxGeometry>
        </mxCell>
        <mxCell id="uJhE-ypuf-mmSnQVpAfS-38" value="" style="endArrow=none;html=1;rounded=0;entryX=0;entryY=0.5;entryDx=0;entryDy=0;exitX=1;exitY=0.5;exitDx=0;exitDy=0;" edge="1" parent="1" source="uJhE-ypuf-mmSnQVpAfS-7" target="uJhE-ypuf-mmSnQVpAfS-2">
          <mxGeometry width="50" height="50" relative="1" as="geometry">
            <mxPoint x="260" y="390" as="sourcePoint" />
            <mxPoint x="261" y="360" as="targetPoint" />
          </mxGeometry>
        </mxCell>
        <mxCell id="uJhE-ypuf-mmSnQVpAfS-39" value="" style="endArrow=none;html=1;rounded=0;entryX=0;entryY=0.5;entryDx=0;entryDy=0;exitX=1;exitY=0.5;exitDx=0;exitDy=0;" edge="1" parent="1" source="uJhE-ypuf-mmSnQVpAfS-2" target="uJhE-ypuf-mmSnQVpAfS-5">
          <mxGeometry width="50" height="50" relative="1" as="geometry">
            <mxPoint x="500" y="420" as="sourcePoint" />
            <mxPoint x="600" y="419.5" as="targetPoint" />
            <Array as="points">
              <mxPoint x="500" y="420" />
              <mxPoint x="500" y="317" />
            </Array>
          </mxGeometry>
        </mxCell>
        <mxCell id="uJhE-ypuf-mmSnQVpAfS-40" value="" style="endArrow=none;html=1;rounded=0;entryX=0;entryY=0.5;entryDx=0;entryDy=0;exitX=1;exitY=0.5;exitDx=0;exitDy=0;" edge="1" parent="1" source="uJhE-ypuf-mmSnQVpAfS-8" target="uJhE-ypuf-mmSnQVpAfS-4">
          <mxGeometry width="50" height="50" relative="1" as="geometry">
            <mxPoint x="290" y="197" as="sourcePoint" />
            <mxPoint x="390" y="196.5" as="targetPoint" />
          </mxGeometry>
        </mxCell>
        <mxCell id="uJhE-ypuf-mmSnQVpAfS-41" value="" style="endArrow=none;html=1;rounded=0;entryX=1;entryY=0.5;entryDx=0;entryDy=0;exitX=0;exitY=0.25;exitDx=0;exitDy=0;" edge="1" parent="1" source="uJhE-ypuf-mmSnQVpAfS-5" target="uJhE-ypuf-mmSnQVpAfS-4">
          <mxGeometry width="50" height="50" relative="1" as="geometry">
            <mxPoint x="390" y="240" as="sourcePoint" />
            <mxPoint x="440" y="190" as="targetPoint" />
            <Array as="points">
              <mxPoint x="500" y="297" />
              <mxPoint x="500" y="197" />
            </Array>
          </mxGeometry>
        </mxCell>
        <mxCell id="uJhE-ypuf-mmSnQVpAfS-43" value="Precio" style="ellipse;whiteSpace=wrap;html=1;" vertex="1" parent="1">
          <mxGeometry x="690" y="407" width="70" height="30" as="geometry" />
        </mxCell>
        <mxCell id="uJhE-ypuf-mmSnQVpAfS-44" value="Compañia" style="ellipse;whiteSpace=wrap;html=1;" vertex="1" parent="1">
          <mxGeometry x="700" y="357" width="70" height="30" as="geometry" />
        </mxCell>
        <mxCell id="uJhE-ypuf-mmSnQVpAfS-45" value="Almacenamiento" style="ellipse;whiteSpace=wrap;html=1;" vertex="1" parent="1">
          <mxGeometry x="680" y="317" width="110" height="30" as="geometry" />
        </mxCell>
        <mxCell id="uJhE-ypuf-mmSnQVpAfS-46" value="Modelo" style="ellipse;whiteSpace=wrap;html=1;" vertex="1" parent="1">
          <mxGeometry x="680" y="277" width="70" height="30" as="geometry" />
        </mxCell>
        <mxCell id="uJhE-ypuf-mmSnQVpAfS-47" value="Marca" style="ellipse;whiteSpace=wrap;html=1;" vertex="1" parent="1">
          <mxGeometry x="650" y="237" width="70" height="30" as="geometry" />
        </mxCell>
        <mxCell id="uJhE-ypuf-mmSnQVpAfS-48" value="" style="endArrow=classic;html=1;rounded=0;entryX=0;entryY=0.5;entryDx=0;entryDy=0;exitX=1;exitY=1;exitDx=0;exitDy=0;" edge="1" parent="1" source="uJhE-ypuf-mmSnQVpAfS-5" target="uJhE-ypuf-mmSnQVpAfS-43">
          <mxGeometry width="50" height="50" relative="1" as="geometry">
            <mxPoint x="251" y="479" as="sourcePoint" />
            <mxPoint x="295" y="497" as="targetPoint" />
          </mxGeometry>
        </mxCell>
        <mxCell id="uJhE-ypuf-mmSnQVpAfS-49" value="" style="endArrow=classic;html=1;rounded=0;entryX=0;entryY=0.5;entryDx=0;entryDy=0;exitX=1;exitY=0.75;exitDx=0;exitDy=0;" edge="1" parent="1" source="uJhE-ypuf-mmSnQVpAfS-5" target="uJhE-ypuf-mmSnQVpAfS-44">
          <mxGeometry width="50" height="50" relative="1" as="geometry">
            <mxPoint x="710" y="477" as="sourcePoint" />
            <mxPoint x="750" y="502" as="targetPoint" />
          </mxGeometry>
        </mxCell>
        <mxCell id="uJhE-ypuf-mmSnQVpAfS-50" value="" style="endArrow=classic;html=1;rounded=0;entryX=0;entryY=0.5;entryDx=0;entryDy=0;exitX=1;exitY=0.5;exitDx=0;exitDy=0;" edge="1" parent="1" source="uJhE-ypuf-mmSnQVpAfS-5" target="uJhE-ypuf-mmSnQVpAfS-45">
          <mxGeometry width="50" height="50" relative="1" as="geometry">
            <mxPoint x="710" y="457" as="sourcePoint" />
            <mxPoint x="790" y="462" as="targetPoint" />
          </mxGeometry>
        </mxCell>
        <mxCell id="uJhE-ypuf-mmSnQVpAfS-51" value="" style="endArrow=classic;html=1;rounded=0;entryX=0;entryY=0.5;entryDx=0;entryDy=0;exitX=1;exitY=0.25;exitDx=0;exitDy=0;fontStyle=1" edge="1" parent="1" source="uJhE-ypuf-mmSnQVpAfS-5" target="uJhE-ypuf-mmSnQVpAfS-46">
          <mxGeometry width="50" height="50" relative="1" as="geometry">
            <mxPoint x="710" y="437" as="sourcePoint" />
            <mxPoint x="790" y="412" as="targetPoint" />
          </mxGeometry>
        </mxCell>
        <mxCell id="uJhE-ypuf-mmSnQVpAfS-52" value="" style="endArrow=classic;html=1;rounded=0;entryX=0;entryY=1;entryDx=0;entryDy=0;exitX=1;exitY=0;exitDx=0;exitDy=0;fontStyle=1" edge="1" parent="1" source="uJhE-ypuf-mmSnQVpAfS-5" target="uJhE-ypuf-mmSnQVpAfS-47">
          <mxGeometry width="50" height="50" relative="1" as="geometry">
            <mxPoint x="710" y="417" as="sourcePoint" />
            <mxPoint x="800" y="382" as="targetPoint" />
          </mxGeometry>
        </mxCell>
        <mxCell id="uJhE-ypuf-mmSnQVpAfS-53" value="ID_Cliente" style="ellipse;whiteSpace=wrap;html=1;" vertex="1" parent="1">
          <mxGeometry x="170" y="50" width="90" height="40" as="geometry" />
        </mxCell>
        <mxCell id="uJhE-ypuf-mmSnQVpAfS-54" value="" style="endArrow=classic;html=1;rounded=0;exitX=0.5;exitY=0;exitDx=0;exitDy=0;entryX=0.5;entryY=1;entryDx=0;entryDy=0;" edge="1" parent="1" source="uJhE-ypuf-mmSnQVpAfS-8" target="uJhE-ypuf-mmSnQVpAfS-53">
          <mxGeometry width="50" height="50" relative="1" as="geometry">
            <mxPoint x="240" y="167" as="sourcePoint" />
            <mxPoint x="160" y="121" as="targetPoint" />
          </mxGeometry>
        </mxCell>
        <mxCell id="TRZ8rVtuHcV98F1seDh_-1" value="" style="endArrow=none;html=1;rounded=0;exitX=-0.005;exitY=0.597;exitDx=0;exitDy=0;exitPerimeter=0;entryX=1;entryY=0.5;entryDx=0;entryDy=0;" edge="1" parent="1" source="uJhE-ypuf-mmSnQVpAfS-7" target="TRZ8rVtuHcV98F1seDh_-2">
          <mxGeometry width="50" height="50" relative="1" as="geometry">
            <mxPoint x="473" y="468" as="sourcePoint" />
            <mxPoint x="40" y="428" as="targetPoint" />
            <Array as="points" />
          </mxGeometry>
        </mxCell>
        <mxCell id="TRZ8rVtuHcV98F1seDh_-2" value="Genera" style="rhombus;whiteSpace=wrap;html=1;" vertex="1" parent="1">
          <mxGeometry x="10" y="387" width="110" height="80" as="geometry" />
        </mxCell>
        <mxCell id="TRZ8rVtuHcV98F1seDh_-3" value="Compra" style="whiteSpace=wrap;html=1;aspect=fixed;" vertex="1" parent="1">
          <mxGeometry x="-140" y="387" width="80" height="80" as="geometry" />
        </mxCell>
        <mxCell id="TRZ8rVtuHcV98F1seDh_-4" value="" style="endArrow=none;html=1;rounded=0;exitX=0;exitY=0.5;exitDx=0;exitDy=0;entryX=1;entryY=0.5;entryDx=0;entryDy=0;" edge="1" parent="1" source="TRZ8rVtuHcV98F1seDh_-2" target="TRZ8rVtuHcV98F1seDh_-3">
          <mxGeometry width="50" height="50" relative="1" as="geometry">
            <mxPoint y="427.5" as="sourcePoint" />
            <mxPoint x="-50" y="427" as="targetPoint" />
            <Array as="points" />
          </mxGeometry>
        </mxCell>
        <mxCell id="TRZ8rVtuHcV98F1seDh_-6" value="ID_Compra&lt;span style=&quot;color: rgba(0, 0, 0, 0); font-family: monospace; font-size: 0px; text-align: start; text-wrap: nowrap;&quot;&gt;%3CmxGraphModel%3E%3Croot%3E%3CmxCell%20id%3D%220%22%2F%3E%3CmxCell%20id%3D%221%22%20parent%3D%220%22%2F%3E%3CmxCell%20id%3D%222%22%20value%3D%22ID_Cliente%22%20style%3D%22ellipse%3BwhiteSpace%3Dwrap%3Bhtml%3D1%3B%22%20vertex%3D%221%22%20parent%3D%221%22%3E%3CmxGeometry%20x%3D%22170%22%20y%3D%2250%22%20width%3D%2290%22%20height%3D%2240%22%20as%3D%22geometry%22%2F%3E%3C%2FmxCell%3E%3C%2Froot%3E%3C%2FmxGraphModel%3E&lt;/span&gt;" style="ellipse;whiteSpace=wrap;html=1;" vertex="1" parent="1">
          <mxGeometry x="-270" y="367" width="90" height="40" as="geometry" />
        </mxCell>
        <mxCell id="TRZ8rVtuHcV98F1seDh_-7" value="Fecha" style="ellipse;whiteSpace=wrap;html=1;" vertex="1" parent="1">
          <mxGeometry x="-290" y="410" width="90" height="40" as="geometry" />
        </mxCell>
        <mxCell id="TRZ8rVtuHcV98F1seDh_-8" value="Total" style="ellipse;whiteSpace=wrap;html=1;" vertex="1" parent="1">
          <mxGeometry x="-260" y="460" width="90" height="40" as="geometry" />
        </mxCell>
        <mxCell id="TRZ8rVtuHcV98F1seDh_-9" value="" style="endArrow=classic;html=1;rounded=0;entryX=1;entryY=0.5;entryDx=0;entryDy=0;exitX=0;exitY=0;exitDx=0;exitDy=0;" edge="1" parent="1" source="TRZ8rVtuHcV98F1seDh_-3" target="TRZ8rVtuHcV98F1seDh_-6">
          <mxGeometry width="50" height="50" relative="1" as="geometry">
            <mxPoint x="224" y="224" as="sourcePoint" />
            <mxPoint x="190" y="267" as="targetPoint" />
          </mxGeometry>
        </mxCell>
        <mxCell id="TRZ8rVtuHcV98F1seDh_-10" value="" style="endArrow=classic;html=1;rounded=0;entryX=1;entryY=0.5;entryDx=0;entryDy=0;exitX=0;exitY=0.5;exitDx=0;exitDy=0;" edge="1" parent="1" source="TRZ8rVtuHcV98F1seDh_-3" target="TRZ8rVtuHcV98F1seDh_-7">
          <mxGeometry width="50" height="50" relative="1" as="geometry">
            <mxPoint x="-130" y="397" as="sourcePoint" />
            <mxPoint x="-190" y="360" as="targetPoint" />
          </mxGeometry>
        </mxCell>
        <mxCell id="TRZ8rVtuHcV98F1seDh_-11" value="" style="endArrow=classic;html=1;rounded=0;entryX=1;entryY=0.5;entryDx=0;entryDy=0;exitX=0;exitY=1;exitDx=0;exitDy=0;" edge="1" parent="1" source="TRZ8rVtuHcV98F1seDh_-3" target="TRZ8rVtuHcV98F1seDh_-8">
          <mxGeometry width="50" height="50" relative="1" as="geometry">
            <mxPoint x="-130" y="417" as="sourcePoint" />
            <mxPoint x="-190" y="432" as="targetPoint" />
          </mxGeometry>
        </mxCell>
      </root>
    </mxGraphModel>
  </diagram>
  <diagram id="C5RBs43oDa-KdzZeNtuy" name="Tablas">
    <mxGraphModel dx="1300" dy="769" grid="1" gridSize="10" guides="1" tooltips="1" connect="1" arrows="1" fold="1" page="1" pageScale="1" pageWidth="827" pageHeight="1169" math="0" shadow="0">
      <root>
        <mxCell id="WIyWlLk6GJQsqaUBKTNV-0" />
        <mxCell id="WIyWlLk6GJQsqaUBKTNV-1" parent="WIyWlLk6GJQsqaUBKTNV-0" />
        <mxCell id="zkfFHV4jXpPFQw0GAbJ--0" value="Empleado" style="swimlane;fontStyle=2;align=center;verticalAlign=top;childLayout=stackLayout;horizontal=1;startSize=26;horizontalStack=0;resizeParent=1;resizeLast=0;collapsible=1;marginBottom=0;rounded=0;shadow=0;strokeWidth=1;" parent="WIyWlLk6GJQsqaUBKTNV-1" vertex="1">
          <mxGeometry x="297" y="120" width="160" height="170" as="geometry">
            <mxRectangle x="230" y="140" width="160" height="26" as="alternateBounds" />
          </mxGeometry>
        </mxCell>
        <mxCell id="zkfFHV4jXpPFQw0GAbJ--1" value="Nombre VARCHAR&#xa;Direecion VARCHAR&#xa;Correo VARCHAR&#xa;RFC VARCHAR&#xa;Telefono INT&#xa;ID_EMpleado INT" style="text;align=left;verticalAlign=top;spacingLeft=4;spacingRight=4;overflow=hidden;rotatable=0;points=[[0,0.5],[1,0.5]];portConstraint=eastwest;" parent="zkfFHV4jXpPFQw0GAbJ--0" vertex="1">
          <mxGeometry y="26" width="160" height="94" as="geometry" />
        </mxCell>
        <mxCell id="zkfFHV4jXpPFQw0GAbJ--4" value="" style="line;html=1;strokeWidth=1;align=left;verticalAlign=middle;spacingTop=-1;spacingLeft=3;spacingRight=3;rotatable=0;labelPosition=right;points=[];portConstraint=eastwest;" parent="zkfFHV4jXpPFQw0GAbJ--0" vertex="1">
          <mxGeometry y="120" width="160" height="40" as="geometry" />
        </mxCell>
        <mxCell id="zkfFHV4jXpPFQw0GAbJ--6" value="Telefono" style="swimlane;fontStyle=0;align=center;verticalAlign=top;childLayout=stackLayout;horizontal=1;startSize=26;horizontalStack=0;resizeParent=1;resizeLast=0;collapsible=1;marginBottom=0;rounded=0;shadow=0;strokeWidth=1;" parent="WIyWlLk6GJQsqaUBKTNV-1" vertex="1">
          <mxGeometry x="627" y="230" width="160" height="192" as="geometry">
            <mxRectangle x="130" y="380" width="160" height="26" as="alternateBounds" />
          </mxGeometry>
        </mxCell>
        <mxCell id="zkfFHV4jXpPFQw0GAbJ--7" value="Marca VARCHAR" style="text;align=left;verticalAlign=top;spacingLeft=4;spacingRight=4;overflow=hidden;rotatable=0;points=[[0,0.5],[1,0.5]];portConstraint=eastwest;" parent="zkfFHV4jXpPFQw0GAbJ--6" vertex="1">
          <mxGeometry y="26" width="160" height="26" as="geometry" />
        </mxCell>
        <mxCell id="zkfFHV4jXpPFQw0GAbJ--8" value="Modelo VARCHAR" style="text;align=left;verticalAlign=top;spacingLeft=4;spacingRight=4;overflow=hidden;rotatable=0;points=[[0,0.5],[1,0.5]];portConstraint=eastwest;rounded=0;shadow=0;html=0;" parent="zkfFHV4jXpPFQw0GAbJ--6" vertex="1">
          <mxGeometry y="52" width="160" height="26" as="geometry" />
        </mxCell>
        <mxCell id="l6qGCF23aW4_1bW30_65-1" value="Precio DECIMAL" style="text;align=left;verticalAlign=top;spacingLeft=4;spacingRight=4;overflow=hidden;rotatable=0;points=[[0,0.5],[1,0.5]];portConstraint=eastwest;rounded=0;shadow=0;html=0;" parent="zkfFHV4jXpPFQw0GAbJ--6" vertex="1">
          <mxGeometry y="78" width="160" height="26" as="geometry" />
        </mxCell>
        <mxCell id="l6qGCF23aW4_1bW30_65-4" value="Almacenamiento DECIMAL" style="text;align=left;verticalAlign=top;spacingLeft=4;spacingRight=4;overflow=hidden;rotatable=0;points=[[0,0.5],[1,0.5]];portConstraint=eastwest;rounded=0;shadow=0;html=0;" parent="zkfFHV4jXpPFQw0GAbJ--6" vertex="1">
          <mxGeometry y="104" width="160" height="26" as="geometry" />
        </mxCell>
        <mxCell id="l6qGCF23aW4_1bW30_65-2" value="Compañia VARCHAR" style="text;align=left;verticalAlign=top;spacingLeft=4;spacingRight=4;overflow=hidden;rotatable=0;points=[[0,0.5],[1,0.5]];portConstraint=eastwest;rounded=0;shadow=0;html=0;" parent="zkfFHV4jXpPFQw0GAbJ--6" vertex="1">
          <mxGeometry y="130" width="160" height="26" as="geometry" />
        </mxCell>
        <mxCell id="zkfFHV4jXpPFQw0GAbJ--9" value="" style="line;html=1;strokeWidth=1;align=left;verticalAlign=middle;spacingTop=-1;spacingLeft=3;spacingRight=3;rotatable=0;labelPosition=right;points=[];portConstraint=eastwest;" parent="zkfFHV4jXpPFQw0GAbJ--6" vertex="1">
          <mxGeometry y="156" width="160" height="36" as="geometry" />
        </mxCell>
        <mxCell id="zkfFHV4jXpPFQw0GAbJ--13" value="Cliente" style="swimlane;fontStyle=0;align=center;verticalAlign=top;childLayout=stackLayout;horizontal=1;startSize=26;horizontalStack=0;resizeParent=1;resizeLast=0;collapsible=1;marginBottom=0;rounded=0;shadow=0;strokeWidth=1;" parent="WIyWlLk6GJQsqaUBKTNV-1" vertex="1">
          <mxGeometry x="307" y="500" width="160" height="216" as="geometry">
            <mxRectangle x="340" y="380" width="170" height="26" as="alternateBounds" />
          </mxGeometry>
        </mxCell>
        <mxCell id="zkfFHV4jXpPFQw0GAbJ--14" value="Nombre VARCHAR" style="text;align=left;verticalAlign=top;spacingLeft=4;spacingRight=4;overflow=hidden;rotatable=0;points=[[0,0.5],[1,0.5]];portConstraint=eastwest;" parent="zkfFHV4jXpPFQw0GAbJ--13" vertex="1">
          <mxGeometry y="26" width="160" height="26" as="geometry" />
        </mxCell>
        <mxCell id="l6qGCF23aW4_1bW30_65-8" value="Correo VARCHAR" style="text;align=left;verticalAlign=top;spacingLeft=4;spacingRight=4;overflow=hidden;rotatable=0;points=[[0,0.5],[1,0.5]];portConstraint=eastwest;" parent="zkfFHV4jXpPFQw0GAbJ--13" vertex="1">
          <mxGeometry y="52" width="160" height="26" as="geometry" />
        </mxCell>
        <mxCell id="l6qGCF23aW4_1bW30_65-10" value="Direccion VARCHAR" style="text;align=left;verticalAlign=top;spacingLeft=4;spacingRight=4;overflow=hidden;rotatable=0;points=[[0,0.5],[1,0.5]];portConstraint=eastwest;" parent="zkfFHV4jXpPFQw0GAbJ--13" vertex="1">
          <mxGeometry y="78" width="160" height="26" as="geometry" />
        </mxCell>
        <mxCell id="l6qGCF23aW4_1bW30_65-9" value="Num. tel. INT" style="text;align=left;verticalAlign=top;spacingLeft=4;spacingRight=4;overflow=hidden;rotatable=0;points=[[0,0.5],[1,0.5]];portConstraint=eastwest;" parent="zkfFHV4jXpPFQw0GAbJ--13" vertex="1">
          <mxGeometry y="104" width="160" height="26" as="geometry" />
        </mxCell>
        <mxCell id="6Qi5kvXZ_eHJq7I1yRqz-1" value="]ID_cliente INT" style="text;align=left;verticalAlign=top;spacingLeft=4;spacingRight=4;overflow=hidden;rotatable=0;points=[[0,0.5],[1,0.5]];portConstraint=eastwest;" vertex="1" parent="zkfFHV4jXpPFQw0GAbJ--13">
          <mxGeometry y="130" width="160" height="26" as="geometry" />
        </mxCell>
        <mxCell id="zkfFHV4jXpPFQw0GAbJ--15" value="" style="line;html=1;strokeWidth=1;align=left;verticalAlign=middle;spacingTop=-1;spacingLeft=3;spacingRight=3;rotatable=0;labelPosition=right;points=[];portConstraint=eastwest;" parent="zkfFHV4jXpPFQw0GAbJ--13" vertex="1">
          <mxGeometry y="156" width="160" height="60" as="geometry" />
        </mxCell>
        <mxCell id="6Qi5kvXZ_eHJq7I1yRqz-2" value="" style="edgeStyle=entityRelationEdgeStyle;fontSize=12;html=1;endArrow=ERoneToMany;rounded=0;exitX=1;exitY=0.181;exitDx=0;exitDy=0;entryX=0.552;entryY=-0.007;entryDx=0;entryDy=0;exitPerimeter=0;entryPerimeter=0;" edge="1" parent="WIyWlLk6GJQsqaUBKTNV-1" source="zkfFHV4jXpPFQw0GAbJ--1" target="zkfFHV4jXpPFQw0GAbJ--6">
          <mxGeometry width="100" height="100" relative="1" as="geometry">
            <mxPoint x="477" y="160" as="sourcePoint" />
            <mxPoint x="727" y="197" as="targetPoint" />
            <Array as="points">
              <mxPoint x="617" y="160" />
              <mxPoint x="617" y="157" />
              <mxPoint x="707" y="180" />
            </Array>
          </mxGeometry>
        </mxCell>
        <mxCell id="6Qi5kvXZ_eHJq7I1yRqz-3" value="EL empleado&amp;nbsp;&lt;div&gt;vende el telefono&amp;nbsp;&lt;/div&gt;" style="edgeLabel;html=1;align=center;verticalAlign=middle;resizable=0;points=[];" vertex="1" connectable="0" parent="6Qi5kvXZ_eHJq7I1yRqz-2">
          <mxGeometry x="-0.0098" y="-2" relative="1" as="geometry">
            <mxPoint as="offset" />
          </mxGeometry>
        </mxCell>
        <mxCell id="6Qi5kvXZ_eHJq7I1yRqz-6" value="" style="edgeStyle=entityRelationEdgeStyle;fontSize=12;html=1;endArrow=ERoneToMany;rounded=0;exitX=0.5;exitY=1;exitDx=0;exitDy=0;entryX=0.547;entryY=-0.008;entryDx=0;entryDy=0;entryPerimeter=0;" edge="1" parent="WIyWlLk6GJQsqaUBKTNV-1" source="zkfFHV4jXpPFQw0GAbJ--0" target="zkfFHV4jXpPFQw0GAbJ--13">
          <mxGeometry width="100" height="100" relative="1" as="geometry">
            <mxPoint x="717" y="240" as="sourcePoint" />
            <mxPoint x="487" y="370" as="targetPoint" />
            <Array as="points">
              <mxPoint x="607" y="203" />
              <mxPoint x="607" y="200" />
            </Array>
          </mxGeometry>
        </mxCell>
        <mxCell id="6Qi5kvXZ_eHJq7I1yRqz-7" value="EL empleado&amp;nbsp;&lt;div&gt;atiende al cliente&amp;nbsp;&lt;/div&gt;" style="edgeLabel;html=1;align=center;verticalAlign=middle;resizable=0;points=[];" vertex="1" connectable="0" parent="6Qi5kvXZ_eHJq7I1yRqz-6">
          <mxGeometry x="-0.0098" y="-2" relative="1" as="geometry">
            <mxPoint as="offset" />
          </mxGeometry>
        </mxCell>
        <mxCell id="z48UXvaBej9uRH7iJz7a-0" value="Compra" style="swimlane;fontStyle=2;align=center;verticalAlign=top;childLayout=stackLayout;horizontal=1;startSize=26;horizontalStack=0;resizeParent=1;resizeLast=0;collapsible=1;marginBottom=0;rounded=0;shadow=0;strokeWidth=1;" vertex="1" parent="WIyWlLk6GJQsqaUBKTNV-1">
          <mxGeometry x="37" y="330" width="160" height="120" as="geometry">
            <mxRectangle x="230" y="140" width="160" height="26" as="alternateBounds" />
          </mxGeometry>
        </mxCell>
        <mxCell id="z48UXvaBej9uRH7iJz7a-1" value="ID_compra INT&#xa;Fecha DATE&#xa;Total DECIMAL" style="text;align=left;verticalAlign=top;spacingLeft=4;spacingRight=4;overflow=hidden;rotatable=0;points=[[0,0.5],[1,0.5]];portConstraint=eastwest;" vertex="1" parent="z48UXvaBej9uRH7iJz7a-0">
          <mxGeometry y="26" width="160" height="94" as="geometry" />
        </mxCell>
        <mxCell id="z48UXvaBej9uRH7iJz7a-2" value="" style="line;html=1;strokeWidth=1;align=left;verticalAlign=middle;spacingTop=-1;spacingLeft=3;spacingRight=3;rotatable=0;labelPosition=right;points=[];portConstraint=eastwest;" vertex="1" parent="z48UXvaBej9uRH7iJz7a-0">
          <mxGeometry y="120" width="160" as="geometry" />
        </mxCell>
        <mxCell id="z48UXvaBej9uRH7iJz7a-3" value="" style="edgeStyle=entityRelationEdgeStyle;fontSize=12;html=1;endArrow=ERmany;startArrow=ERmany;rounded=0;entryX=0;entryY=0.5;entryDx=0;entryDy=0;exitX=1;exitY=0.5;exitDx=0;exitDy=0;" edge="1" parent="WIyWlLk6GJQsqaUBKTNV-1" source="l6qGCF23aW4_1bW30_65-10" target="l6qGCF23aW4_1bW30_65-1">
          <mxGeometry width="100" height="100" relative="1" as="geometry">
            <mxPoint x="437" y="490" as="sourcePoint" />
            <mxPoint x="537" y="390" as="targetPoint" />
          </mxGeometry>
        </mxCell>
        <mxCell id="z48UXvaBej9uRH7iJz7a-5" value="El cliente compra&amp;nbsp;&lt;div&gt;los telefonos&lt;/div&gt;" style="edgeLabel;html=1;align=center;verticalAlign=middle;resizable=0;points=[];" vertex="1" connectable="0" parent="z48UXvaBej9uRH7iJz7a-3">
          <mxGeometry x="0.0093" y="-1" relative="1" as="geometry">
            <mxPoint as="offset" />
          </mxGeometry>
        </mxCell>
        <mxCell id="z48UXvaBej9uRH7iJz7a-6" value="" style="edgeStyle=entityRelationEdgeStyle;fontSize=12;html=1;endArrow=ERoneToMany;rounded=0;exitX=-0.01;exitY=0.623;exitDx=0;exitDy=0;entryX=1.015;entryY=0.273;entryDx=0;entryDy=0;exitPerimeter=0;entryPerimeter=0;" edge="1" parent="WIyWlLk6GJQsqaUBKTNV-1" source="zkfFHV4jXpPFQw0GAbJ--1" target="z48UXvaBej9uRH7iJz7a-1">
          <mxGeometry width="100" height="100" relative="1" as="geometry">
            <mxPoint x="467" y="173" as="sourcePoint" />
            <mxPoint x="725" y="239" as="targetPoint" />
            <Array as="points">
              <mxPoint x="627" y="170" />
              <mxPoint x="627" y="167" />
              <mxPoint x="717" y="190" />
            </Array>
          </mxGeometry>
        </mxCell>
        <mxCell id="z48UXvaBej9uRH7iJz7a-7" value="EL empleado&amp;nbsp;&lt;div&gt;registra la compra&lt;/div&gt;" style="edgeLabel;html=1;align=center;verticalAlign=middle;resizable=0;points=[];" vertex="1" connectable="0" parent="z48UXvaBej9uRH7iJz7a-6">
          <mxGeometry x="-0.0098" y="-2" relative="1" as="geometry">
            <mxPoint as="offset" />
          </mxGeometry>
        </mxCell>
      </root>
    </mxGraphModel>
  </diagram>
</mxfile>
